<?xml version="1.0" standalone="no"?><!DOCTYPE svg PUBLIC "-//W3C//DTD SVG 1.1//EN" "http://www.w3.org/Graphics/SVG/1.1/DTD/svg11.dtd"><svg t="1773554565749" class="icon" viewBox="0 0 1024 1024" version="1.1" xmlns="http://www.w3.org/2000/svg" p-id="7893" xmlns:xlink="http://www.w3.org/1999/xlink" width="256" height="256"><path d="M734.592 695.488a577.44 577.44 0 0 1-14.88 177.024A414.336 414.336 0 0 1 512 928c-56.32 0-110.048-11.2-159.04-31.488a570.88 570.88 0 0 1-25.408-98.976c18.592 1.632 37.44 2.464 56.448 2.464 123.712 0 239.232-35.104 337.12-95.872l13.472-8.64zM184.224 768.192c25.12 8.256 50.88 14.976 77.28 20.096 2.88 21.888 6.848 43.424 11.904 64.576a419.52 419.52 0 0 1-86.016-80.672l-3.168-4z m740.8-206.08a415.04 415.04 0 0 1-130.112 254.88 648.32 648.32 0 0 0-0.48-165.92c27.52-23.04 53.088-48.32 76.384-75.616a79.616 79.616 0 0 0 52.352-12.128l1.856-1.248zM508.768 277.536a575.968 575.968 0 0 1 216.384 346.56A573.44 573.44 0 0 1 384 736c-21.376 0-42.496-1.152-63.296-3.424a585.6 585.6 0 0 1 0.288-62.4 79.968 79.968 0 0 0 27.296-144.8 575.36 575.36 0 0 1 143.584-231.808l10.976-10.528 5.92-5.472zM266.304 176.256l7.136-5.088 14.656 3.136L288 176a80 80 0 0 0 141.696 50.944c8.32 4.416 16.544 9.056 24.64 13.856a640.032 640.032 0 0 0-169.792 273.6 80 80 0 0 0-26.848 142.848 640.64 640.64 0 0 0-1.44 64.544 571.84 571.84 0 0 1-126.208-44.64A414.88 414.88 0 0 1 96 512c0-137.856 67.04-260.032 170.304-335.744z m457.92-22.144a417.024 417.024 0 0 1 186.56 239.104c-3.712 8.48-7.68 16.832-11.84 25.088a80 80 0 0 0-84.224 124c-10.88 12.352-22.4 24.256-34.4 35.616a640.192 640.192 0 0 0-220.512-341.696 574.112 574.112 0 0 1 156.512-79.648l7.872-2.464zM512 96c45.248 0 88.832 7.232 129.6 20.576a637.824 637.824 0 0 0-136.32 80.48 639.168 639.168 0 0 0-58.24-33.216 79.872 79.872 0 0 0-36.224-55.424A416.384 416.384 0 0 1 512 96z" fill="#f28111" p-id="7894"></path></svg>